<mxfile host="app.diagrams.net" agent="Mozilla/5.0 (Windows NT 10.0; Win64; x64) AppleWebKit/537.36 (KHTML, like Gecko) Chrome/141.0.0.0 Safari/537.36" version="28.2.5">
  <diagram name="Page-1" id="YbZh5vb_EH9QgcyUguOh">
    <mxGraphModel dx="1426" dy="751" grid="1" gridSize="10" guides="1" tooltips="1" connect="1" arrows="1" fold="1" page="1" pageScale="1" pageWidth="827" pageHeight="1169" math="0" shadow="0">
      <root>
        <mxCell id="0" />
        <mxCell id="1" parent="0" />
        <mxCell id="82--gjfFcXOvX8ffMUFg-18" style="edgeStyle=orthogonalEdgeStyle;rounded=0;orthogonalLoop=1;jettySize=auto;html=1;exitX=1;exitY=0.75;exitDx=0;exitDy=0;entryX=0;entryY=0.25;entryDx=0;entryDy=0;" parent="1" source="82--gjfFcXOvX8ffMUFg-1" target="82--gjfFcXOvX8ffMUFg-3" edge="1">
          <mxGeometry relative="1" as="geometry">
            <Array as="points">
              <mxPoint x="220" y="160" />
              <mxPoint x="490" y="160" />
              <mxPoint x="490" y="165" />
            </Array>
          </mxGeometry>
        </mxCell>
        <mxCell id="82--gjfFcXOvX8ffMUFg-19" value="GET,PUT,DELETE&amp;nbsp;" style="edgeLabel;html=1;align=center;verticalAlign=middle;resizable=0;points=[];" parent="82--gjfFcXOvX8ffMUFg-18" vertex="1" connectable="0">
          <mxGeometry x="-0.1696" relative="1" as="geometry">
            <mxPoint as="offset" />
          </mxGeometry>
        </mxCell>
        <mxCell id="82--gjfFcXOvX8ffMUFg-1" value="SalesForce" style="rounded=0;whiteSpace=wrap;html=1;" parent="1" vertex="1">
          <mxGeometry x="100" y="90" width="120" height="60" as="geometry" />
        </mxCell>
        <mxCell id="82--gjfFcXOvX8ffMUFg-20" style="edgeStyle=orthogonalEdgeStyle;rounded=0;orthogonalLoop=1;jettySize=auto;html=1;exitX=0.25;exitY=1;exitDx=0;exitDy=0;entryX=0.25;entryY=0;entryDx=0;entryDy=0;" parent="1" source="82--gjfFcXOvX8ffMUFg-2" target="82--gjfFcXOvX8ffMUFg-3" edge="1">
          <mxGeometry relative="1" as="geometry" />
        </mxCell>
        <mxCell id="82--gjfFcXOvX8ffMUFg-2" value="Epicor" style="rounded=0;whiteSpace=wrap;html=1;" parent="1" vertex="1">
          <mxGeometry x="570" y="90" width="120" height="60" as="geometry" />
        </mxCell>
        <mxCell id="82--gjfFcXOvX8ffMUFg-11" style="edgeStyle=orthogonalEdgeStyle;rounded=0;orthogonalLoop=1;jettySize=auto;html=1;exitX=0;exitY=0.5;exitDx=0;exitDy=0;" parent="1" edge="1">
          <mxGeometry relative="1" as="geometry">
            <mxPoint x="579.97" y="180" as="sourcePoint" />
            <mxPoint x="120.0044827586207" y="150" as="targetPoint" />
            <Array as="points">
              <mxPoint x="579.97" y="190" />
              <mxPoint x="350.97" y="190" />
              <mxPoint x="350.97" y="210" />
              <mxPoint x="119.97" y="210" />
            </Array>
          </mxGeometry>
        </mxCell>
        <mxCell id="82--gjfFcXOvX8ffMUFg-12" value="GET,PUT,POST,DELETE&amp;nbsp;" style="edgeLabel;html=1;align=center;verticalAlign=middle;resizable=0;points=[];" parent="82--gjfFcXOvX8ffMUFg-11" vertex="1" connectable="0">
          <mxGeometry x="0.0234" y="2" relative="1" as="geometry">
            <mxPoint as="offset" />
          </mxGeometry>
        </mxCell>
        <mxCell id="82--gjfFcXOvX8ffMUFg-4" value="" style="endArrow=classic;html=1;rounded=0;entryX=0;entryY=0.5;entryDx=0;entryDy=0;" parent="1" source="82--gjfFcXOvX8ffMUFg-1" target="82--gjfFcXOvX8ffMUFg-2" edge="1">
          <mxGeometry width="50" height="50" relative="1" as="geometry">
            <mxPoint x="320" y="170" as="sourcePoint" />
            <mxPoint x="370" y="120" as="targetPoint" />
          </mxGeometry>
        </mxCell>
        <mxCell id="82--gjfFcXOvX8ffMUFg-5" value="POST" style="edgeLabel;html=1;align=center;verticalAlign=middle;resizable=0;points=[];" parent="82--gjfFcXOvX8ffMUFg-4" vertex="1" connectable="0">
          <mxGeometry x="-0.1383" y="2" relative="1" as="geometry">
            <mxPoint as="offset" />
          </mxGeometry>
        </mxCell>
        <mxCell id="82--gjfFcXOvX8ffMUFg-15" value="" style="swimlane;startSize=0;" parent="1" vertex="1">
          <mxGeometry x="530" y="20" width="200" height="240" as="geometry" />
        </mxCell>
        <mxCell id="82--gjfFcXOvX8ffMUFg-3" value="ETL (ETLConnector c# library) et parser" style="rounded=0;whiteSpace=wrap;html=1;" parent="82--gjfFcXOvX8ffMUFg-15" vertex="1">
          <mxGeometry x="40" y="130" width="120" height="60" as="geometry" />
        </mxCell>
        <mxCell id="82--gjfFcXOvX8ffMUFg-16" value="Epicor" style="text;html=1;align=center;verticalAlign=middle;resizable=0;points=[];autosize=1;strokeColor=none;fillColor=none;" parent="1" vertex="1">
          <mxGeometry x="595" y="30" width="60" height="30" as="geometry" />
        </mxCell>
        <mxCell id="82--gjfFcXOvX8ffMUFg-21" style="edgeStyle=orthogonalEdgeStyle;rounded=0;orthogonalLoop=1;jettySize=auto;html=1;exitX=0.75;exitY=0;exitDx=0;exitDy=0;entryX=0.75;entryY=1;entryDx=0;entryDy=0;" parent="1" source="82--gjfFcXOvX8ffMUFg-3" target="82--gjfFcXOvX8ffMUFg-2" edge="1">
          <mxGeometry relative="1" as="geometry" />
        </mxCell>
        <mxCell id="82--gjfFcXOvX8ffMUFg-22" style="edgeStyle=orthogonalEdgeStyle;rounded=0;orthogonalLoop=1;jettySize=auto;html=1;exitX=1;exitY=0.5;exitDx=0;exitDy=0;entryX=1;entryY=0.5;entryDx=0;entryDy=0;" parent="1" source="82--gjfFcXOvX8ffMUFg-3" target="82--gjfFcXOvX8ffMUFg-2" edge="1">
          <mxGeometry relative="1" as="geometry">
            <mxPoint x="760" y="120" as="targetPoint" />
            <Array as="points">
              <mxPoint x="690" y="200" />
              <mxPoint x="810" y="200" />
              <mxPoint x="810" y="120" />
            </Array>
          </mxGeometry>
        </mxCell>
        <mxCell id="82--gjfFcXOvX8ffMUFg-27" value="GET META DATA" style="edgeLabel;html=1;align=center;verticalAlign=middle;resizable=0;points=[];" parent="82--gjfFcXOvX8ffMUFg-22" vertex="1" connectable="0">
          <mxGeometry x="0.0552" y="2" relative="1" as="geometry">
            <mxPoint as="offset" />
          </mxGeometry>
        </mxCell>
        <mxCell id="82--gjfFcXOvX8ffMUFg-23" style="edgeStyle=orthogonalEdgeStyle;rounded=0;orthogonalLoop=1;jettySize=auto;html=1;exitX=0.5;exitY=1;exitDx=0;exitDy=0;entryX=0;entryY=0.25;entryDx=0;entryDy=0;" parent="1" source="82--gjfFcXOvX8ffMUFg-3" target="82--gjfFcXOvX8ffMUFg-1" edge="1">
          <mxGeometry relative="1" as="geometry">
            <mxPoint x="60" y="100" as="targetPoint" />
            <Array as="points">
              <mxPoint x="630" y="290" />
              <mxPoint x="40" y="290" />
              <mxPoint x="40" y="110" />
              <mxPoint x="80" y="110" />
              <mxPoint x="80" y="105" />
            </Array>
          </mxGeometry>
        </mxCell>
        <mxCell id="82--gjfFcXOvX8ffMUFg-24" value="GET META DATA" style="edgeLabel;html=1;align=center;verticalAlign=middle;resizable=0;points=[];" parent="82--gjfFcXOvX8ffMUFg-23" vertex="1" connectable="0">
          <mxGeometry x="-0.2224" y="2" relative="1" as="geometry">
            <mxPoint as="offset" />
          </mxGeometry>
        </mxCell>
        <mxCell id="82--gjfFcXOvX8ffMUFg-28" value="DB&amp;nbsp;Queue" style="rounded=0;whiteSpace=wrap;html=1;" parent="1" vertex="1">
          <mxGeometry x="100" y="30" width="120" height="60" as="geometry" />
        </mxCell>
        <mxCell id="82--gjfFcXOvX8ffMUFg-29" value="DB Queue" style="rounded=0;whiteSpace=wrap;html=1;" parent="1" vertex="1">
          <mxGeometry x="570" y="30" width="120" height="60" as="geometry" />
        </mxCell>
        <mxCell id="82--gjfFcXOvX8ffMUFg-43" style="edgeStyle=orthogonalEdgeStyle;rounded=0;orthogonalLoop=1;jettySize=auto;html=1;exitX=0.5;exitY=0;exitDx=0;exitDy=0;entryX=0.5;entryY=1;entryDx=0;entryDy=0;" parent="1" source="82--gjfFcXOvX8ffMUFg-30" target="82--gjfFcXOvX8ffMUFg-37" edge="1">
          <mxGeometry relative="1" as="geometry" />
        </mxCell>
        <mxCell id="82--gjfFcXOvX8ffMUFg-30" value="Objet" style="rounded=0;whiteSpace=wrap;html=1;" parent="1" vertex="1">
          <mxGeometry x="110" y="510" width="120" height="60" as="geometry" />
        </mxCell>
        <mxCell id="82--gjfFcXOvX8ffMUFg-32" value="Externe" style="text;html=1;align=center;verticalAlign=middle;resizable=0;points=[];autosize=1;strokeColor=none;fillColor=none;" parent="1" vertex="1">
          <mxGeometry x="260" y="8" width="60" height="30" as="geometry" />
        </mxCell>
        <mxCell id="82--gjfFcXOvX8ffMUFg-33" value="Interne" style="text;html=1;align=center;verticalAlign=middle;resizable=0;points=[];autosize=1;strokeColor=none;fillColor=none;" parent="1" vertex="1">
          <mxGeometry x="160" y="378" width="60" height="30" as="geometry" />
        </mxCell>
        <mxCell id="82--gjfFcXOvX8ffMUFg-34" value="ETL" style="rounded=0;whiteSpace=wrap;html=1;" parent="1" vertex="1">
          <mxGeometry x="270" y="870" width="120" height="60" as="geometry" />
        </mxCell>
        <mxCell id="82--gjfFcXOvX8ffMUFg-35" value="Table Queue" style="rounded=0;whiteSpace=wrap;html=1;" parent="1" vertex="1">
          <mxGeometry x="475" y="430" width="120" height="60" as="geometry" />
        </mxCell>
        <mxCell id="82--gjfFcXOvX8ffMUFg-53" style="edgeStyle=orthogonalEdgeStyle;rounded=0;orthogonalLoop=1;jettySize=auto;html=1;exitX=0;exitY=0.5;exitDx=0;exitDy=0;entryX=1;entryY=0.5;entryDx=0;entryDy=0;" parent="1" source="82--gjfFcXOvX8ffMUFg-36" target="82--gjfFcXOvX8ffMUFg-34" edge="1">
          <mxGeometry relative="1" as="geometry">
            <Array as="points">
              <mxPoint x="455" y="610" />
              <mxPoint x="455" y="745" />
              <mxPoint x="460" y="745" />
              <mxPoint x="460" y="880" />
            </Array>
          </mxGeometry>
        </mxCell>
        <mxCell id="82--gjfFcXOvX8ffMUFg-54" value="Lit" style="edgeLabel;html=1;align=center;verticalAlign=middle;resizable=0;points=[];" parent="82--gjfFcXOvX8ffMUFg-53" vertex="1" connectable="0">
          <mxGeometry x="0.1283" y="1" relative="1" as="geometry">
            <mxPoint as="offset" />
          </mxGeometry>
        </mxCell>
        <mxCell id="rW1Qqu5iitF5ZVzv5wJi-2" value="Text" style="edgeLabel;html=1;align=center;verticalAlign=middle;resizable=0;points=[];" parent="82--gjfFcXOvX8ffMUFg-53" vertex="1" connectable="0">
          <mxGeometry x="0.1325" y="6" relative="1" as="geometry">
            <mxPoint as="offset" />
          </mxGeometry>
        </mxCell>
        <mxCell id="rW1Qqu5iitF5ZVzv5wJi-4" style="edgeStyle=orthogonalEdgeStyle;rounded=0;orthogonalLoop=1;jettySize=auto;html=1;exitX=0;exitY=0;exitDx=0;exitDy=0;entryX=0.5;entryY=1;entryDx=0;entryDy=0;" parent="1" source="82--gjfFcXOvX8ffMUFg-36" target="82--gjfFcXOvX8ffMUFg-30" edge="1">
          <mxGeometry relative="1" as="geometry" />
        </mxCell>
        <mxCell id="rW1Qqu5iitF5ZVzv5wJi-5" value="Metadata" style="edgeLabel;html=1;align=center;verticalAlign=middle;resizable=0;points=[];" parent="rW1Qqu5iitF5ZVzv5wJi-4" vertex="1" connectable="0">
          <mxGeometry x="0.2693" y="3" relative="1" as="geometry">
            <mxPoint as="offset" />
          </mxGeometry>
        </mxCell>
        <mxCell id="82--gjfFcXOvX8ffMUFg-36" value="Fonction schedulé utilise ETL connector" style="rounded=0;whiteSpace=wrap;html=1;" parent="1" vertex="1">
          <mxGeometry x="475" y="580" width="120" height="60" as="geometry" />
        </mxCell>
        <mxCell id="82--gjfFcXOvX8ffMUFg-38" style="edgeStyle=orthogonalEdgeStyle;rounded=0;orthogonalLoop=1;jettySize=auto;html=1;exitX=1;exitY=0.5;exitDx=0;exitDy=0;entryX=0;entryY=0.5;entryDx=0;entryDy=0;" parent="1" source="82--gjfFcXOvX8ffMUFg-37" target="82--gjfFcXOvX8ffMUFg-35" edge="1">
          <mxGeometry relative="1" as="geometry" />
        </mxCell>
        <mxCell id="82--gjfFcXOvX8ffMUFg-39" value="Écrit les modifications seulement JSON" style="edgeLabel;html=1;align=center;verticalAlign=middle;resizable=0;points=[];" parent="82--gjfFcXOvX8ffMUFg-38" vertex="1" connectable="0">
          <mxGeometry x="-0.0899" y="-3" relative="1" as="geometry">
            <mxPoint as="offset" />
          </mxGeometry>
        </mxCell>
        <mxCell id="82--gjfFcXOvX8ffMUFg-37" value="DataDirective" style="rounded=0;whiteSpace=wrap;html=1;" parent="1" vertex="1">
          <mxGeometry x="110" y="430" width="120" height="60" as="geometry" />
        </mxCell>
        <mxCell id="82--gjfFcXOvX8ffMUFg-40" value="Actor" style="shape=umlActor;verticalLabelPosition=bottom;verticalAlign=top;html=1;outlineConnect=0;" parent="1" vertex="1">
          <mxGeometry x="20" y="510" width="30" height="60" as="geometry" />
        </mxCell>
        <mxCell id="82--gjfFcXOvX8ffMUFg-41" style="edgeStyle=orthogonalEdgeStyle;rounded=0;orthogonalLoop=1;jettySize=auto;html=1;exitX=1;exitY=0.3333333333333333;exitDx=0;exitDy=0;exitPerimeter=0;entryX=0.03;entryY=0.326;entryDx=0;entryDy=0;entryPerimeter=0;" parent="1" source="82--gjfFcXOvX8ffMUFg-40" target="82--gjfFcXOvX8ffMUFg-30" edge="1">
          <mxGeometry relative="1" as="geometry" />
        </mxCell>
        <mxCell id="82--gjfFcXOvX8ffMUFg-42" value="Update" style="edgeLabel;html=1;align=center;verticalAlign=middle;resizable=0;points=[];" parent="82--gjfFcXOvX8ffMUFg-41" vertex="1" connectable="0">
          <mxGeometry x="-0.2426" y="-1" relative="1" as="geometry">
            <mxPoint as="offset" />
          </mxGeometry>
        </mxCell>
        <mxCell id="82--gjfFcXOvX8ffMUFg-45" style="edgeStyle=orthogonalEdgeStyle;rounded=0;orthogonalLoop=1;jettySize=auto;html=1;exitX=0.5;exitY=0;exitDx=0;exitDy=0;entryX=0.545;entryY=1.051;entryDx=0;entryDy=0;entryPerimeter=0;" parent="1" source="82--gjfFcXOvX8ffMUFg-36" target="82--gjfFcXOvX8ffMUFg-35" edge="1">
          <mxGeometry relative="1" as="geometry" />
        </mxCell>
        <mxCell id="82--gjfFcXOvX8ffMUFg-46" value="Lit" style="edgeLabel;html=1;align=center;verticalAlign=middle;resizable=0;points=[];" parent="82--gjfFcXOvX8ffMUFg-45" vertex="1" connectable="0">
          <mxGeometry x="-0.1319" y="-3" relative="1" as="geometry">
            <mxPoint as="offset" />
          </mxGeometry>
        </mxCell>
        <mxCell id="82--gjfFcXOvX8ffMUFg-51" style="edgeStyle=orthogonalEdgeStyle;rounded=0;orthogonalLoop=1;jettySize=auto;html=1;exitX=1;exitY=0;exitDx=0;exitDy=0;entryX=0.116;entryY=0.993;entryDx=0;entryDy=0;entryPerimeter=0;" parent="1" source="82--gjfFcXOvX8ffMUFg-36" target="82--gjfFcXOvX8ffMUFg-50" edge="1">
          <mxGeometry relative="1" as="geometry" />
        </mxCell>
        <mxCell id="82--gjfFcXOvX8ffMUFg-52" value="Lit" style="edgeLabel;html=1;align=center;verticalAlign=middle;resizable=0;points=[];" parent="82--gjfFcXOvX8ffMUFg-51" vertex="1" connectable="0">
          <mxGeometry x="-0.0381" relative="1" as="geometry">
            <mxPoint as="offset" />
          </mxGeometry>
        </mxCell>
        <mxCell id="82--gjfFcXOvX8ffMUFg-55" value="" style="swimlane;startSize=0;" parent="1" vertex="1">
          <mxGeometry x="10" y="420" width="820" height="240" as="geometry" />
        </mxCell>
        <mxCell id="82--gjfFcXOvX8ffMUFg-50" value="Table Champs synchronisés" style="rounded=0;whiteSpace=wrap;html=1;" parent="82--gjfFcXOvX8ffMUFg-55" vertex="1">
          <mxGeometry x="660" y="20" width="120" height="60" as="geometry" />
        </mxCell>
        <mxCell id="rW1Qqu5iitF5ZVzv5wJi-6" value="" style="rounded=0;whiteSpace=wrap;html=1;" parent="1" vertex="1">
          <mxGeometry x="580" y="250" width="120" height="60" as="geometry" />
        </mxCell>
      </root>
    </mxGraphModel>
  </diagram>
</mxfile>
